<mxfile host="app.diagrams.net" modified="2023-03-07T12:05:03.394Z" agent="5.0 (X11; Ubuntu)" etag="a7JN837uMaOk-QN-z258" version="21.0.2" type="github">
  <diagram name="Page-1" id="SKLvr-yh19j2k4rbDxnk">
    <mxGraphModel dx="2191" dy="1338" grid="1" gridSize="10" guides="1" tooltips="1" connect="1" arrows="1" fold="1" page="1" pageScale="1" pageWidth="827" pageHeight="1169" math="0" shadow="0">
      <root>
        <mxCell id="0" />
        <mxCell id="1" parent="0" />
        <mxCell id="YMkFfzjEfmS2Q9vUWcUY-1" value="&lt;div&gt;&lt;b&gt;NameNode&lt;/b&gt;&lt;/div&gt;&lt;div&gt;group13-node1&lt;/div&gt;&lt;div&gt;&lt;i&gt;192.168.2.197&lt;/i&gt;&lt;/div&gt;" style="rounded=1;whiteSpace=wrap;html=1;fillColor=#dae8fc;strokeColor=#6c8ebf;" parent="1" vertex="1">
          <mxGeometry x="230" y="40" width="150" height="80" as="geometry" />
        </mxCell>
        <mxCell id="YMkFfzjEfmS2Q9vUWcUY-2" value="&lt;div&gt;&lt;b&gt;DataNode&lt;/b&gt;&lt;/div&gt;&lt;div&gt;group13-node2&lt;/div&gt;&lt;div&gt;192.168.2.223&lt;/div&gt;" style="ellipse;whiteSpace=wrap;html=1;aspect=fixed;fillColor=#fff2cc;strokeColor=#d6b656;" parent="1" vertex="1">
          <mxGeometry x="80" y="210" width="100" height="100" as="geometry" />
        </mxCell>
        <mxCell id="YMkFfzjEfmS2Q9vUWcUY-3" value="&lt;div&gt;&lt;b&gt;DataNode&lt;/b&gt;&lt;/div&gt;&lt;div&gt;group13-node3&lt;/div&gt;&lt;div&gt;192.168.2.157&lt;/div&gt;" style="ellipse;whiteSpace=wrap;html=1;aspect=fixed;fillColor=#fff2cc;strokeColor=#d6b656;" parent="1" vertex="1">
          <mxGeometry x="190" y="210" width="100" height="100" as="geometry" />
        </mxCell>
        <mxCell id="YMkFfzjEfmS2Q9vUWcUY-4" value="&lt;div&gt;&lt;b&gt;DataNode&lt;/b&gt;&lt;/div&gt;&lt;div&gt;group13-node4&lt;/div&gt;&lt;div&gt;192.168.2.85&lt;/div&gt;" style="ellipse;whiteSpace=wrap;html=1;aspect=fixed;fillColor=#fff2cc;strokeColor=#d6b656;" parent="1" vertex="1">
          <mxGeometry x="300" y="210" width="100" height="100" as="geometry" />
        </mxCell>
        <mxCell id="YMkFfzjEfmS2Q9vUWcUY-5" value="&lt;div&gt;&lt;b&gt;DataNode&lt;/b&gt;&lt;/div&gt;&lt;div&gt;group13-node5&lt;/div&gt;&lt;div&gt;192.168.2.167&lt;/div&gt;" style="ellipse;whiteSpace=wrap;html=1;aspect=fixed;fillColor=#fff2cc;strokeColor=#d6b656;" parent="1" vertex="1">
          <mxGeometry x="414" y="210" width="100" height="100" as="geometry" />
        </mxCell>
        <mxCell id="ORpk2uo_OGljnYeXRlhu-1" value="" style="whiteSpace=wrap;html=1;aspect=fixed;fillColor=#d5e8d4;strokeColor=#82b366;" vertex="1" parent="1">
          <mxGeometry x="470" y="290" width="30" height="30" as="geometry" />
        </mxCell>
        <mxCell id="ORpk2uo_OGljnYeXRlhu-2" value="" style="whiteSpace=wrap;html=1;aspect=fixed;fillColor=#d5e8d4;strokeColor=#82b366;" vertex="1" parent="1">
          <mxGeometry x="430" y="290" width="30" height="30" as="geometry" />
        </mxCell>
        <mxCell id="ORpk2uo_OGljnYeXRlhu-3" value="" style="whiteSpace=wrap;html=1;aspect=fixed;fillColor=#d5e8d4;strokeColor=#82b366;" vertex="1" parent="1">
          <mxGeometry x="130" y="290" width="30" height="30" as="geometry" />
        </mxCell>
        <mxCell id="ORpk2uo_OGljnYeXRlhu-4" value="" style="whiteSpace=wrap;html=1;aspect=fixed;fillColor=#d5e8d4;strokeColor=#82b366;" vertex="1" parent="1">
          <mxGeometry x="360" y="290" width="30" height="30" as="geometry" />
        </mxCell>
        <mxCell id="ORpk2uo_OGljnYeXRlhu-5" value="" style="whiteSpace=wrap;html=1;aspect=fixed;fillColor=#d5e8d4;strokeColor=#82b366;" vertex="1" parent="1">
          <mxGeometry x="90" y="290" width="30" height="30" as="geometry" />
        </mxCell>
        <mxCell id="ORpk2uo_OGljnYeXRlhu-6" value="" style="whiteSpace=wrap;html=1;aspect=fixed;fillColor=#d5e8d4;strokeColor=#82b366;" vertex="1" parent="1">
          <mxGeometry x="220" y="290" width="30" height="30" as="geometry" />
        </mxCell>
        <mxCell id="ORpk2uo_OGljnYeXRlhu-7" value="" style="endArrow=classic;startArrow=classic;html=1;rounded=0;entryX=0;entryY=1;entryDx=0;entryDy=0;exitX=0.562;exitY=-0.03;exitDx=0;exitDy=0;exitPerimeter=0;" edge="1" parent="1" source="YMkFfzjEfmS2Q9vUWcUY-2" target="YMkFfzjEfmS2Q9vUWcUY-1">
          <mxGeometry width="50" height="50" relative="1" as="geometry">
            <mxPoint x="140" y="200" as="sourcePoint" />
            <mxPoint x="220" y="120" as="targetPoint" />
          </mxGeometry>
        </mxCell>
        <mxCell id="ORpk2uo_OGljnYeXRlhu-8" value="" style="endArrow=classic;startArrow=classic;html=1;rounded=0;entryX=0.25;entryY=1;entryDx=0;entryDy=0;exitX=0.5;exitY=0;exitDx=0;exitDy=0;" edge="1" parent="1" source="YMkFfzjEfmS2Q9vUWcUY-3" target="YMkFfzjEfmS2Q9vUWcUY-1">
          <mxGeometry width="50" height="50" relative="1" as="geometry">
            <mxPoint x="146" y="217" as="sourcePoint" />
            <mxPoint x="240" y="130" as="targetPoint" />
          </mxGeometry>
        </mxCell>
        <mxCell id="ORpk2uo_OGljnYeXRlhu-9" value="" style="endArrow=classic;startArrow=classic;html=1;rounded=0;entryX=0.75;entryY=1;entryDx=0;entryDy=0;exitX=0.5;exitY=0;exitDx=0;exitDy=0;" edge="1" parent="1" source="YMkFfzjEfmS2Q9vUWcUY-4" target="YMkFfzjEfmS2Q9vUWcUY-1">
          <mxGeometry width="50" height="50" relative="1" as="geometry">
            <mxPoint x="156" y="227" as="sourcePoint" />
            <mxPoint x="250" y="140" as="targetPoint" />
          </mxGeometry>
        </mxCell>
        <mxCell id="ORpk2uo_OGljnYeXRlhu-10" value="" style="endArrow=classic;startArrow=classic;html=1;rounded=0;entryX=1;entryY=1;entryDx=0;entryDy=0;exitX=0.5;exitY=0;exitDx=0;exitDy=0;" edge="1" parent="1" source="YMkFfzjEfmS2Q9vUWcUY-5" target="YMkFfzjEfmS2Q9vUWcUY-1">
          <mxGeometry width="50" height="50" relative="1" as="geometry">
            <mxPoint x="166" y="237" as="sourcePoint" />
            <mxPoint x="260" y="150" as="targetPoint" />
          </mxGeometry>
        </mxCell>
        <mxCell id="ORpk2uo_OGljnYeXRlhu-11" value="" style="endArrow=none;html=1;rounded=0;" edge="1" parent="1">
          <mxGeometry width="50" height="50" relative="1" as="geometry">
            <mxPoint x="490" y="310" as="sourcePoint" />
            <mxPoint x="520" y="310" as="targetPoint" />
          </mxGeometry>
        </mxCell>
        <mxCell id="ORpk2uo_OGljnYeXRlhu-12" value="&lt;b&gt;Block&lt;/b&gt;" style="text;html=1;align=center;verticalAlign=middle;resizable=0;points=[];autosize=1;strokeColor=none;fillColor=none;" vertex="1" parent="1">
          <mxGeometry x="510" y="297" width="60" height="30" as="geometry" />
        </mxCell>
        <mxCell id="ORpk2uo_OGljnYeXRlhu-18" value="" style="endArrow=classic;startArrow=classic;html=1;rounded=0;exitX=0.75;exitY=1;exitDx=0;exitDy=0;entryX=0;entryY=1;entryDx=0;entryDy=0;" edge="1" parent="1" source="ORpk2uo_OGljnYeXRlhu-6" target="ORpk2uo_OGljnYeXRlhu-4">
          <mxGeometry width="50" height="50" relative="1" as="geometry">
            <mxPoint x="250" y="327" as="sourcePoint" />
            <mxPoint x="350" y="320" as="targetPoint" />
            <Array as="points">
              <mxPoint x="300" y="350" />
            </Array>
          </mxGeometry>
        </mxCell>
        <mxCell id="ORpk2uo_OGljnYeXRlhu-19" value="&lt;b&gt;Replication&lt;/b&gt;" style="text;html=1;align=center;verticalAlign=middle;resizable=0;points=[];autosize=1;strokeColor=none;fillColor=none;" vertex="1" parent="1">
          <mxGeometry x="255" y="345" width="90" height="30" as="geometry" />
        </mxCell>
        <mxCell id="ORpk2uo_OGljnYeXRlhu-20" value="&lt;b style=&quot;font-size: 11px;&quot;&gt;Block Operations&lt;/b&gt;" style="text;html=1;align=center;verticalAlign=middle;resizable=0;points=[];autosize=1;strokeColor=none;fillColor=none;fontSize=11;" vertex="1" parent="1">
          <mxGeometry x="244" y="160" width="110" height="30" as="geometry" />
        </mxCell>
      </root>
    </mxGraphModel>
  </diagram>
</mxfile>
